<svg width="80" height="8" viewBox="0 0 80 8" fill="none" xmlns="http://www.w3.org/2000/svg">
<path d="M3.09763 0.921696H0.482544V6.96314H1.88071V5.29743H3.09763C4.71156 5.29743 5.72134 4.46026 5.72134 3.11388C5.72134 1.75887 4.71156 0.921696 3.09763 0.921696ZM3.01995 4.15819H1.88071V2.06094H3.01995C3.87439 2.06094 4.30592 2.44932 4.30592 3.11388C4.30592 3.76981 3.87439 4.15819 3.01995 4.15819Z" fill="black"/>
<path d="M10.9663 6.96314H12.4335L9.7321 0.921696H8.35119L5.65843 6.96314H7.09112L7.62622 5.66855H10.4312L10.9663 6.96314ZM8.07501 4.60698L9.03301 2.29397L9.99102 4.60698H8.07501Z" fill="black"/>
<path d="M16.6696 3.81296C17.2047 3.57993 17.5413 3.11388 17.5413 2.527C17.5413 1.4309 16.3331 0.792236 14.9349 0.792236C14.2444 0.792236 13.5195 0.947588 12.8635 1.28418L13.2864 2.37164C13.8043 2.0782 14.3998 1.94011 14.909 1.94011C15.5908 1.94011 16.1259 2.19903 16.1259 2.69098C16.1259 3.08799 15.798 3.33828 15.2283 3.33828H13.8561V4.39121H15.3319C15.9619 4.39121 16.3762 4.61561 16.3762 5.07303C16.3762 5.63403 15.7289 5.92747 14.9349 5.92747C14.348 5.92747 13.6748 5.77212 13.1225 5.43552L12.6909 6.43668C13.4418 6.86821 14.2962 7.06671 15.0989 7.06671C16.5488 7.06671 17.7916 6.41078 17.7916 5.27154C17.7916 4.58972 17.3687 4.05462 16.6696 3.81296Z" fill="black"/>
<path d="M21.5136 0.921696H18.8985V6.96314H20.2967V5.29743H21.5136C23.1275 5.29743 24.1373 4.46026 24.1373 3.11388C24.1373 1.75887 23.1275 0.921696 21.5136 0.921696ZM21.4359 4.15819H20.2967V2.06094H21.4359C22.2904 2.06094 22.7219 2.44932 22.7219 3.11388C22.7219 3.76981 22.2904 4.15819 21.4359 4.15819Z" fill="black"/>
<path d="M29.3822 6.96314H30.8495L28.1481 0.921696H26.7672L24.0744 6.96314H25.5071L26.0422 5.66855H28.8471L29.3822 6.96314ZM26.491 4.60698L27.449 2.29397L28.407 4.60698H26.491Z" fill="black"/>
<path d="M31.6506 6.96314H34.516C36.0695 6.96314 36.9585 6.26406 36.9585 5.05577C36.9585 3.89927 36.1731 3.27786 34.7145 3.27786H33.0402V2.03505H36.5269V0.921696H31.6506V6.96314ZM33.0402 5.92747V4.30491H34.4383C35.1719 4.30491 35.543 4.56383 35.543 5.09893C35.543 5.64266 35.1547 5.92747 34.4383 5.92747H33.0402Z" fill="black"/>
<path d="M40.9051 7.06671C42.8038 7.06671 44.2106 5.74622 44.2106 3.94242C44.2106 2.13862 42.8038 0.818128 40.9051 0.818128C38.9977 0.818128 37.5996 2.14725 37.5996 3.94242C37.5996 5.73759 38.9977 7.06671 40.9051 7.06671ZM40.9051 5.87568C39.8263 5.87568 39.015 5.0903 39.015 3.94242C39.015 2.79455 39.8263 2.00916 40.9051 2.00916C41.9839 2.00916 42.7952 2.79455 42.7952 3.94242C42.7952 5.0903 41.9839 5.87568 40.9051 5.87568Z" fill="black"/>
<path d="M49.8208 0.921696H44.582V2.06094H46.5066V6.96314H47.8876V2.06094H49.8208V0.921696Z" fill="black"/>
<path d="M55.0213 6.96314H56.4885L53.7871 0.921696H52.4062L49.7135 6.96314H51.1462L51.6813 5.66855H54.4862L55.0213 6.96314ZM52.1301 4.60698L53.0881 2.29397L54.0461 4.60698H52.1301Z" fill="black"/>
<path d="M61.4324 0.921696V3.30375H58.6879V0.921696H57.2897V6.96314H58.6879V4.48615H61.4324V6.96314H62.8306V0.921696H61.4324Z" fill="black"/>
<path d="M67.2269 7.06671C69.1256 7.06671 70.5324 5.74622 70.5324 3.94242C70.5324 2.13862 69.1256 0.818128 67.2269 0.818128C65.3195 0.818128 63.9213 2.14725 63.9213 3.94242C63.9213 5.73759 65.3195 7.06671 67.2269 7.06671ZM67.2269 5.87568C66.148 5.87568 65.3368 5.0903 65.3368 3.94242C65.3368 2.79455 66.148 2.00916 67.2269 2.00916C68.3057 2.00916 69.117 2.79455 69.117 3.94242C69.117 5.0903 68.3057 5.87568 67.2269 5.87568Z" fill="black"/>
<path d="M78.2396 3.81296C78.7747 3.55404 79.094 3.09662 79.094 2.48384C79.094 1.48269 78.2655 0.921696 76.8673 0.921696H74.0537V6.96314H77.0313C78.5589 6.96314 79.3788 6.31585 79.3788 5.26291C79.3788 4.5293 78.9732 4.02873 78.2396 3.81296ZM75.4432 1.95737H76.7465C77.3506 1.95737 77.6699 2.21629 77.6699 2.69098C77.6699 3.17429 77.3506 3.42458 76.7465 3.42458H75.4432V1.95737ZM76.9795 5.92747H75.4432V4.39984H76.9795C77.6268 4.39984 77.9634 4.6415 77.9634 5.15071C77.9634 5.67718 77.6268 5.92747 76.9795 5.92747Z" fill="black"/>
</svg>
